# xmcd
#
# Track frame offsets:
#	150
#	24377
#	45943
#	64874
#	88097
#	107962
#	131171
#	155312
#	173701
#	187745
#
# Disc length: 2757 seconds
#
# Revision: 1
# Processed by: cddbd v1.5.1PL0 Copyright (c) Steve Scherf et al.
# Submitted via: audiograbber 1.83.01
#
DISCID=780ac30a
DTITLE=Orville - Found
DYEAR=2004
DGENRE=Pop
TTITLE0=How Much Pain
TTITLE1=Home
TTITLE2=Grateful
TTITLE3=Majesty
TTITLE4=You Set me on Fire
TTITLE5=Found
TTITLE6=True Love
TTITLE7=Miracles
TTITLE8=I Need You
TTITLE9=More Than Anything
EXTD=
EXTT0=
EXTT1=
EXTT2=
EXTT3=
EXTT4=
EXTT5=
EXTT6=
EXTT7=
EXTT8=
EXTT9=
PLAYORDER=
